<?xml version="1.0" encoding="UTF-8" standalone="no"?>
<!-- Created with Inkscape (http://www.inkscape.org/) -->
<svg xmlns:dc="http://purl.org/dc/elements/1.1/" xmlns:cc="http://creativecommons.org/ns#" xmlns:rdf="http://www.w3.org/1999/02/22-rdf-syntax-ns#" xmlns:svg="http://www.w3.org/2000/svg" xmlns="http://www.w3.org/2000/svg" xmlns:sodipodi="http://sodipodi.sourceforge.net/DTD/sodipodi-0.dtd" xmlns:inkscape="http://www.inkscape.org/namespaces/inkscape" width="16" height="16" id="svg2" version="1.1" inkscape:version="0.48.2 r9819" sodipodi:docname="icon-sd-export.svg">
<defs id="defs4"/>
<sodipodi:namedview id="base" pagecolor="#ffffff" bordercolor="#666666" borderopacity="1.0" inkscape:pageopacity="0.0" inkscape:pageshadow="2" inkscape:zoom="48.785714" inkscape:cx="8" inkscape:cy="8.0000174" inkscape:document-units="px" inkscape:current-layer="layer1" showgrid="true" inkscape:window-width="1522" inkscape:window-height="901" inkscape:window-x="0" inkscape:window-y="22" inkscape:window-maximized="0">
<inkscape:grid type="xygrid" id="grid2985" empspacing="8" visible="true" enabled="true" snapvisiblegridlinesonly="true" spacingx="1px" spacingy="1px"/>
</sodipodi:namedview>
<metadata id="metadata7">
<rdf:RDF>
<cc:Work rdf:about="">
<dc:format>image/svg+xml</dc:format>
<dc:type rdf:resource="http://purl.org/dc/dcmitype/StillImage"/>
<dc:title/>
</cc:Work>
</rdf:RDF>
</metadata>
<g inkscape:label="Layer 1" inkscape:groupmode="layer" id="layer1" transform="translate(0,-1036.3622)">
<path style="fill:#008000;fill-opacity:1;stroke:none" d="m 1,1039.3622 8,0 0,1 -8,0 z" id="path3114"/>
<path style="fill:#008000;fill-opacity:1;stroke:none" d="m 1,1041.3622 8,0 0,1 -8,0 z" id="path3112"/>
<path style="fill:#008000;fill-opacity:1;stroke:none" d="m 1,1043.3622 8,0 0,1 -8,0 z" id="path3110"/>
<path style="fill:#008000;fill-opacity:1;stroke:none" d="m 1,1045.3622 8,0 0,1 -8,0 z" id="path3108"/>
<path style="fill:#008000;fill-opacity:1;stroke:none" d="m 1,1047.3622 8,0 0,1 -8,0 z" id="path3127"/>
<path sodipodi:nodetypes="ccccccccccccccccccccccccccccccccccccc" inkscape:connector-curvature="0" id="path3960" transform="translate(0,1036.3622)" d="m 0,2 0,11 10,0 0,-5 3,0 -2,3 0,1 1,0 4,-4 0,-1 -4,-4 -1,0 0,1 2,3 -3,0 0,-5 z M 3,4 8,4 8,5 3,5 z M 2,6 8,6 8,7 2,7 z M 2,8 8,8 8,9 2,9 z m 0,2 6,0 0,1 -6,0 z" style="fill:#6c9d30;fill-opacity:1;stroke:none"/>
</g>
</svg>