<svg xmlns="http://www.w3.org/2000/svg" height="24" width="27" version="1.1">
<defs>
<linearGradient id="g" x2="0" y2="24" gradientUnits="userSpaceOnUse">
<stop stop-color="#06e100" offset="0"/>
<stop stop-color="#009000" offset="1"/>
</linearGradient>
</defs>
<path d="M0,0,27,0,27,24,0,24z" fill="#d7d7d7"/>
<path d="M1,1,26,1,26,23,1,23z" fill="url(#g)"/>
<path fill="#FFF" d="m11.299,4.6202c-3.1445,0-5.6875,2.543-5.6875,5.6875,0,3.1446,2.543,5.7187,5.6875,5.7187,1.2654,0,2.4298-0.4268,3.375-1.125l5,3.4375,0.03125,0.03125c0.24626,0.1772,0.5485,0.28125,0.875,0.28125,0.82843,0,1.5-0.6716,1.5-1.5,0-0.5178-0.25725-0.9804-0.65625-1.25l-4.875-3.375c0.28812-0.6812,0.4375-1.4325,0.4375-2.2187,0-3.1445-2.543-5.6875-5.6875-5.6875zm0.03125,1.9062c2.143,0,3.9062,1.732,3.9062,3.875s-1.7633,3.875-3.9062,3.875c-2.143,0-3.875-1.732-3.875-3.875s1.732-3.875,3.875-3.875z"/>
</svg>