<svg xmlns:rdf="http://www.w3.org/1999/02/22-rdf-syntax-ns#" xmlns="http://www.w3.org/2000/svg" height="16" width="16" version="1.1" xmlns:cc="http://creativecommons.org/ns#" xmlns:dc="http://purl.org/dc/elements/1.1/" viewBox="0 0 16 16">
<path fill="#FFF" d="m0.5,4,15,0,0,8-15,0z"/>
<path d="M2,0c-1.108,0-2,0.892-2,2v12c0,1.108,0.892,2,2,2h12c1.108,0,2-0.892,2-2v-12c0-1.108-0.892-2-2-2zm3.171,4.171c0.285,0.006,0.59,0.08,0.875,0.218,0.35,0.174,0.395,0.274,1.093,1.031,0.465,0.511,0.879,0.660,1.281,0.468,0.174-0.058,0.648-0.592,0.968-1,0.087-0.116,0.311-0.276,0.468-0.375,0.989-0.640,2.405-0.231,2.906,0.875,0.163,0.35,0.210,1.092,0.093,1.5-0.111,0.35-0.193,1.109-0.156,1.406,0.040,0.343,0.202,0.633,0.406,0.75,0.128,0.058,0.322,0.130,0.625,0.156,0.372,0.034,0.532,0.051,0.718,0.156,0.532,0.35,0.742,1.172,0.468,1.812-0.104,0.209-0.405,0.522-0.656,0.656-0.291,0.151-0.876,0.151-1.156,0-0.637-0.35-0.873-1.06-0.593-1.875,0.209-0.640,0.177-0.931-0.218-1.281-0.582-0.489-1.680-0.602-2.437-0.218-0.605,0.291-0.759,0.765-0.468,1.406,0.35,0.756,0.069,1.525-0.687,1.875-0.291,0.139-0.998,0.145-1.312,0-0.518-0.232-0.777-0.640-0.812-1.187-0.023-0.320,0.014-0.408,0.125-0.687,0.180-0.436,0.192-0.613,0.093-0.875-0.407-1.117-2.998-0.981-3.312,0.125-0.069,0.279-0.083,0.330,0.062,0.75,0.291,0.873,0.042,1.574-0.656,1.906-0.465,0.232-1.03,0.132-1.437-0.281-0.351-0.35-0.485-0.870-0.375-1.406,0.116-0.500,0.659-0.905,1.218-0.906,0.582,0,0.946-0.237,1.062-0.656,0.081-0.291,0.040-1.015-0.093-1.562-0.291-1.164,0.068-2.114,1-2.562,0.291-0.151,0.620-0.225,0.906-0.218zm2.906,2.218c-0.749,0-1.343,0.626-1.343,1.375s0.594,1.343,1.343,1.343c0.749,0,1.343-0.594,1.343-1.343,0-0.748-0.594-1.375-1.343-1.375z" fill="#a91b26"/>
</svg>