<svg xmlns="http://www.w3.org/2000/svg" viewBox="0 0 24 24" width="24" height="24">
<defs>
<linearGradient gradientTransform="matrix(1 .0011 -.0011 1 -904.3096 -370.2046)" id="SVGID_1_" y1="686" y2="339" x1="1010" gradientUnits="userSpaceOnUse" x2="1200">
<stop offset="0" stop-color="#fff"/>
<stop offset="1" stop-color="#e1e1e1"/>
</linearGradient>
</defs>
<g transform="matrix(.03862 0 0 .03864 6.65104 5.63387)">
<path fill="url(#SVGID_1_)" stroke="#000" stroke-width="13.409" d="m-41.7-140 333,0 126,119 0,186 0,305-230,0-230,0 0-305z"/>
<path fill="#da0000" stroke="#aaa" stroke-width="6.004" d="m-169-96.5h414v139h-414z"/>
<path fill="#fff9f9" d="m-60.9-76.1 30.2,0c19.6,0 27.6,13.2 27.7,30.5 .153,18.7-11.2,30.5-27.8,30.5h-12v32.4h-18.2v-93.4m18.2,17.5 0,26.1 10.1,0c5.05,0 11.1-1.29 11.1-13.1-.024-11.7-5.97-13-11.1-13h-10.1m70.8,.7 0,56.9 6.5,0c17.4,0 22.8-8.72 22.9-28.5 .142-20.7-5.89-28.3-22.9-28.3h-6.5m-18.2-18.3 19.2,0c31.3,0 47,11.4 47.2,46.6 .2,32.9-11.3,46.8-47.2,46.8h-19.2v-93.4m80.2,0 49,0 0,18.2-30.9,0 0,17.4 29,0 0,18.2-29,0 0,39.5-18.1,0 0-93.3"/>
</g>
<g fill="#f91d0a">
<path d="m14,10.1c.25,3.22-4.74,12.6-6.12,11.9-1.31-.64 1.1-2.5 2.1-3.29-2.06,.673-3.88,2.45-2.76,2.96 1.52,.676 5.07-6.97 6.77-11.6z"/>
<path d="m10.3,18.7c3.43-1.15 10.6-2.24 10.9-1.06 .593-2.38-9.87-.28-10.9,1.06z"/>
<path d="m14.1,14.9c1.66,2.44 7.06,5.65 7.04,2.88-.22,1.54-4.79-.829-6.42-3.14-2.94-4.17-1.72-6.61-1.21-6.58 .658,.0349 .771,.984 .482,1.84-.126-1.06-.417-1.84-.882-1.82-1.32,.0491-1.37,3.36 .985,6.83z"/>
</g>
</svg>